<svg aria-hidden="true" style="position: absolute; width: 0; height: 0; overflow: hidden;" version="1.1" xmlns="http://www.w3.org/2000/svg" xmlns:xlink="http://www.w3.org/1999/xlink">
<defs>
<symbol id="icon-Windsurf_menu" viewBox="0 0 140 32">
<path d="M4.237 21.428l20.656-19.713v6.622c0 0.383-0.159 0.75-0.443 1.021l-16.431 15.681-3.783-3.61zM10.557 27.46l14.336-13.682v6.622c0 0.383-0.159 0.75-0.443 1.021l-6.328 6.039 5.028 4.798h-7.565l-5.028-4.799zM141.010 21.396l3.672 2.49c-1.724 2.173-4.414 3.571-7.436 3.571-5.205 0-9.424-4.145-9.424-9.259s4.219-9.259 9.424-9.259c3.022 0 5.712 1.398 7.436 3.571l-3.672 2.49c-0.905-1.080-2.256-1.768-3.764-1.768-2.716 0-4.925 2.227-4.925 4.965s2.21 4.965 4.925 4.965c1.508 0 2.86-0.688 3.764-1.768zM41.448 16.439h7.598l-1.451 4.074h-6.147v6.944h-4.435v-18.518h14.705l-1.451 4.074h-8.818v3.426zM104.191 8.939h14.414v4.074h-4.989v14.444h-4.436v-14.444h-4.989v-4.074zM120.521 27.457h4.539v-18.518h-4.539v18.518zM93.902 20.496l2.245-6.716 2.245 6.716h-4.491zM93.32 8.939l-6.597 18.518h4.851l0.962-2.887h7.223l0.962 2.887h4.852l-6.597-18.518h-5.655zM80.515 8.939h4.435v18.518h-3.326l-7.484-10.052v10.052h-4.435v-18.518h3.326l7.484 10.052v-10.052zM56.261 20.496l2.245-6.716 2.245 6.716h-4.491zM55.679 8.939l-6.597 18.518h4.851l0.962-2.887h7.223l0.962 2.887h4.851l-6.597-18.518h-5.655z"></path>
</symbol>
<symbol id="icon-Group-3" viewBox="0 0 32 32">
<path fill="#fff" style="fill: var(--color1, #fff)" d="M24.079 15.771l-12.119 6.928v-13.856l12.119 6.928z"></path>
<path fill="none" stroke="#fff" style="stroke: var(--color1, #fff)" stroke-linejoin="miter" stroke-linecap="butt" stroke-miterlimit="4" stroke-width="0.9143" d="M31.543 16c0 8.584-6.959 15.543-15.543 15.543s-15.543-6.959-15.543-15.543c0-8.584 6.959-15.543 15.543-15.543s15.543 6.959 15.543 15.543z"></path>
</symbol>
<symbol id="icon-Star" viewBox="0 0 32 32">
<path fill="#b9c400" style="fill: var(--color1, #b9c400)" d="M16.161 0l3.735 7.072 7.692-2.385-2.409 7.615 7.143 3.698-7.143 3.698 2.409 7.615-7.692-2.385-3.735 7.072-3.735-7.072-7.692 2.385 2.409-7.615-7.143-3.698 7.143-3.698-2.409-7.615 7.692 2.385 3.735-7.072z"></path>
</symbol>
</defs>
</svg>
